<?xml version="1.0" encoding="utf-8"?>
<!-- Generator: Adobe Illustrator 22.0.1, SVG Export Plug-In . SVG Version: 6.00 Build 0)  -->
<svg version="1.1" baseProfile="tiny" id="Camada_1"
	 xmlns="http://www.w3.org/2000/svg" xmlns:xlink="http://www.w3.org/1999/xlink" x="0px" y="0px" viewBox="0 0 1920 828.9"
	 xml:space="preserve">
<polygon points="137.6,481.3 206.2,412.7 275.4,412.7 343.4,480.8 412.1,480.8 343.1,549.7 274.8,549.7 206.3,481.2 "/>
<polygon points="412.1,481.3 480.7,412.7 549.9,412.7 617.9,480.8 686.5,480.8 617.6,549.7 549.3,549.7 480.8,481.2 "/>
<polygon points="686.5,481.3 755.2,412.7 824.3,412.7 892.4,480.8 961,480.8 892.1,549.7 823.8,549.7 755.3,481.2 "/>
<polygon points="1509,208.2 1577.6,139.6 1646.8,139.6 1714.8,207.6 1783.4,207.6 1714.5,276.6 1646.2,276.6 1577.7,208.1 "/>
<polygon points="1234.5,208.2 1303.1,139.6 1372.3,139.6 1440.3,207.6 1509,207.6 1440,276.6 1371.7,276.6 1303.2,208.1 "/>
<polygon points="960,208.2 1028.6,139.6 1097.8,139.6 1165.9,207.6 1234.5,207.6 1165.6,276.6 1097.2,276.6 1028.8,208.1 "/>
<polygon points="418.8,760.5 487.4,691.9 556.6,691.9 624.7,760 693.3,760 624.4,828.9 556,828.9 487.6,760.4 "/>
<polygon points="693.3,760.5 761.9,691.9 831.1,691.9 899.1,760 967.8,760 898.8,828.9 830.5,828.9 762,760.4 "/>
<polygon points="967.8,760.5 1036.4,691.9 1105.6,691.9 1173.6,760 1242.2,760 1173.3,828.9 1105,828.9 1036.5,760.4 "/>
<polygon points="1240.9,760.5 1309.5,691.9 1378.7,691.9 1446.7,760 1515.4,760 1446.5,828.9 1378.1,828.9 1309.6,760.4 "/>
<polygon points="1509,760.5 1577.6,691.9 1646.8,691.9 1714.8,760 1783.4,760 1714.5,828.9 1646.2,828.9 1577.7,760.4 "/>
<polygon points="1096.6,344.8 1165.2,276.2 1234.4,276.2 1302.4,344.2 1371,344.2 1302.1,413.1 1233.8,413.1 1165.3,344.6 "/>
<polygon points="1371.4,68.6 1440,0 1509.2,0 1577.2,68 1645.9,68 1577,137 1508.6,137 1440.1,68.5 "/>
<polygon points="1645.5,68.6 1714.1,0 1783.3,0 1851.4,68 1920,68 1851.1,137 1782.8,137 1714.3,68.5 "/>
<polygon points="822.4,344.8 891,276.2 960.2,276.2 1028.3,344.2 1096.9,344.2 1028,413.1 959.7,413.1 891.2,344.6 "/>
<polygon points="1371,344.8 1439.7,276.2 1508.9,276.2 1576.9,344.2 1645.5,344.2 1576.6,413.1 1508.3,413.1 1439.8,344.6 "/>
<polygon points="1645.5,344.8 1714.1,276.2 1783.3,276.2 1851.4,344.2 1920,344.2 1851.1,413.1 1782.8,413.1 1714.3,344.6 "/>
<polygon points="960,481.3 1028.6,412.7 1097.8,412.7 1165.9,480.8 1234.5,480.8 1165.6,549.7 1097.2,549.7 1028.8,481.2 "/>
<polygon points="1234.5,481.3 1303.1,412.7 1372.3,412.7 1440.3,480.8 1509,480.8 1440,549.7 1371.7,549.7 1303.2,481.2 "/>
<polygon points="1509,481.3 1577.6,412.7 1646.8,412.7 1714.8,480.8 1783.4,480.8 1714.5,549.7 1646.2,549.7 1577.7,481.2 "/>
<polygon points="0,620.9 68.6,552.3 137.8,552.3 205.9,620.4 274.5,620.4 205.6,689.3 137.2,689.3 68.8,620.8 "/>
<polygon points="274.5,620.9 343.1,552.3 412.3,552.3 480.3,620.4 549,620.4 480,689.3 411.7,689.3 343.2,620.8 "/>
<polygon points="549,620.9 617.6,552.3 686.8,552.3 754.8,620.4 823.4,620.4 754.5,689.3 686.2,689.3 617.7,620.8 "/>
<polygon points="822.4,620.9 891,552.3 960.2,552.3 1028.3,620.4 1096.9,620.4 1028,689.3 959.7,689.3 891.2,620.8 "/>
<polygon points="1096.9,620.9 1165.5,552.3 1234.7,552.3 1302.8,620.4 1371.4,620.4 1302.5,689.3 1234.1,689.3 1165.7,620.8 "/>
<polygon points="1371.4,620.9 1440,552.3 1509.2,552.3 1577.2,620.4 1645.9,620.4 1577,689.3 1508.6,689.3 1440.1,620.8 "/>
<polygon points="1645.5,620.9 1714.1,552.3 1783.3,552.3 1851.4,620.4 1920,620.4 1851.1,689.3 1782.8,689.3 1714.3,620.8 "/>
</svg>
